<mxfile host="Electron" modified="2023-05-11T16:47:45.845Z" agent="Mozilla/5.0 (Windows NT 10.0; Win64; x64) AppleWebKit/537.36 (KHTML, like Gecko) draw.io/21.2.8 Chrome/112.0.5615.165 Electron/24.2.0 Safari/537.36" etag="UcH1tkv8iO4XgCF_fYkx" version="21.2.8" type="device">
  <diagram name="PÃ¡gina-1" id="_njM3QNoR8DCTx4L-_KV">
    <mxGraphModel dx="2046" dy="713" grid="1" gridSize="10" guides="1" tooltips="1" connect="1" arrows="1" fold="1" page="1" pageScale="1" pageWidth="827" pageHeight="1169" math="0" shadow="0">
      <root>
        <mxCell id="0" />
        <mxCell id="1" parent="0" />
        <mxCell id="TM8XVRZ51GwtwfDUDH0s-2" value="" style="rounded=0;whiteSpace=wrap;html=1;fontStyle=1;fontSize=15;" vertex="1" parent="1">
          <mxGeometry x="-240" y="460" width="710" height="180" as="geometry" />
        </mxCell>
        <mxCell id="TM8XVRZ51GwtwfDUDH0s-8" value="START PH&lt;br style=&quot;font-size: 15px;&quot;&gt;SENSOR" style="whiteSpace=wrap;html=1;aspect=fixed;fontStyle=1;fontSize=15;" vertex="1" parent="1">
          <mxGeometry x="-140" y="530" width="80" height="80" as="geometry" />
        </mxCell>
        <mxCell id="TM8XVRZ51GwtwfDUDH0s-9" value="END PH&lt;br style=&quot;border-color: var(--border-color); font-size: 15px;&quot;&gt;SENSOR" style="whiteSpace=wrap;html=1;aspect=fixed;fontStyle=1;fontSize=15;" vertex="1" parent="1">
          <mxGeometry x="-50" y="530" width="80" height="80" as="geometry" />
        </mxCell>
        <mxCell id="TM8XVRZ51GwtwfDUDH0s-10" value="TEMPERATURE&lt;br style=&quot;border-color: var(--border-color); font-size: 10px;&quot;&gt;SENSOR" style="whiteSpace=wrap;html=1;aspect=fixed;fontSize=10;fontStyle=1" vertex="1" parent="1">
          <mxGeometry x="50" y="530" width="80" height="80" as="geometry" />
        </mxCell>
        <mxCell id="TM8XVRZ51GwtwfDUDH0s-11" value="HUMIDITY&lt;br style=&quot;border-color: var(--border-color); font-size: 15px;&quot;&gt;SENSOR" style="whiteSpace=wrap;html=1;aspect=fixed;fontStyle=1;fontSize=15;" vertex="1" parent="1">
          <mxGeometry x="150" y="530" width="80" height="80" as="geometry" />
        </mxCell>
        <mxCell id="TM8XVRZ51GwtwfDUDH0s-12" value="WATER FLOW SENSOR" style="whiteSpace=wrap;html=1;aspect=fixed;fontStyle=1;fontSize=15;" vertex="1" parent="1">
          <mxGeometry x="250" y="530" width="80" height="80" as="geometry" />
        </mxCell>
        <mxCell id="TM8XVRZ51GwtwfDUDH0s-13" value="WATER LEVEL SENSOR" style="whiteSpace=wrap;html=1;aspect=fixed;fontStyle=1;fontSize=15;" vertex="1" parent="1">
          <mxGeometry x="350" y="530" width="80" height="80" as="geometry" />
        </mxCell>
        <mxCell id="TM8XVRZ51GwtwfDUDH0s-14" value="SENSORS" style="text;html=1;align=center;verticalAlign=middle;resizable=0;points=[];autosize=1;strokeColor=none;fillColor=none;fontStyle=1;fontSize=22;" vertex="1" parent="1">
          <mxGeometry x="-235" y="470" width="130" height="40" as="geometry" />
        </mxCell>
      </root>
    </mxGraphModel>
  </diagram>
</mxfile>
